<?xml version="1.0" encoding="UTF-8" standalone="no"?>
<!DOCTYPE svg PUBLIC "-//W3C//DTD SVG 1.1//EN" "http://www.w3.org/Graphics/SVG/1.1/DTD/svg11.dtd">
<svg width="100%" height="100%" viewBox="0 0 363 128" version="1.1" xmlns="http://www.w3.org/2000/svg" xmlns:xlink="http://www.w3.org/1999/xlink" xml:space="preserve" xmlns:serif="http://www.serif.com/" style="fill-rule:evenodd;clip-rule:evenodd;stroke-linejoin:round;stroke-miterlimit:2;">
    <g transform="matrix(0.921549,0,0,0.921549,-15.2471,-9.10647)">
        <g>
            <g transform="matrix(3.84033,0,0,3.84033,-356.643,-419.984)">
                <g transform="matrix(12,0,0,12,142.817,147.867)">
                    <path d="M0.507,-0.382C0.507,-0.529 0.384,-0.531 0.281,-0.531C0.146,-0.531 0.042,-0.528 0.042,-0.384C0.042,-0.25 0.077,-0.224 0.27,-0.221C0.397,-0.219 0.4,-0.196 0.4,-0.15C0.4,-0.078 0.356,-0.08 0.281,-0.08C0.188,-0.08 0.17,-0.089 0.168,-0.165L0.042,-0.165C0.042,0.006 0.138,0.006 0.281,0.006C0.414,0.006 0.526,-0.008 0.526,-0.15C0.526,-0.32 0.416,-0.311 0.292,-0.317C0.182,-0.322 0.168,-0.324 0.168,-0.376C0.168,-0.445 0.214,-0.445 0.281,-0.445C0.348,-0.445 0.381,-0.445 0.381,-0.382L0.507,-0.382Z" style="fill:rgb(202,0,41);fill-rule:nonzero;"/>
                </g>
                <g transform="matrix(12,0,0,12,149.501,147.867)">
                    <path d="M0.291,-0.531C0.072,-0.531 0.044,-0.466 0.044,-0.262C0.044,-0.059 0.072,0.006 0.291,0.006C0.51,0.006 0.538,-0.059 0.538,-0.262C0.538,-0.466 0.51,-0.531 0.291,-0.531ZM0.291,-0.435C0.403,-0.435 0.412,-0.403 0.412,-0.261C0.412,-0.121 0.403,-0.09 0.291,-0.09C0.179,-0.09 0.17,-0.121 0.17,-0.261C0.17,-0.403 0.179,-0.435 0.291,-0.435Z" style="fill:rgb(202,0,41);fill-rule:nonzero;"/>
                </g>
                <g transform="matrix(12,0,0,12,156.485,147.867)">
                    <rect x="0.063" y="-0.75" width="0.126" height="0.75" style="fill:rgb(202,0,41);fill-rule:nonzero;"/>
                </g>
                <g transform="matrix(12,0,0,12,159.509,147.867)">
                    <path d="M0.53,-0L0.53,-0.525L0.404,-0.525L0.404,-0.222C0.404,-0.131 0.373,-0.09 0.276,-0.09C0.195,-0.09 0.188,-0.119 0.188,-0.194L0.188,-0.525L0.062,-0.525L0.062,-0.145C0.063,-0.03 0.133,0.006 0.238,0.006C0.31,0.006 0.375,-0.011 0.404,-0.081L0.408,-0.081L0.408,-0L0.53,-0Z" style="fill:rgb(202,0,41);fill-rule:nonzero;"/>
                </g>
                <g transform="matrix(12,0,0,12,166.625,147.867)">
                    <path d="M-0.002,-0.429L0.064,-0.429L0.064,-0.159C0.064,-0.026 0.106,0.006 0.244,0.006C0.38,0.006 0.42,-0.042 0.418,-0.201L0.307,-0.201C0.307,-0.146 0.315,-0.09 0.244,-0.09C0.191,-0.09 0.191,-0.112 0.19,-0.16L0.19,-0.429L0.391,-0.429L0.391,-0.525L0.19,-0.525L0.19,-0.644L0.064,-0.644L0.064,-0.525L-0.002,-0.525L-0.002,-0.429Z" style="fill:rgb(202,0,41);fill-rule:nonzero;"/>
                </g>
                <g transform="matrix(12,0,0,12,171.725,147.867)">
                    <path d="M0.181,-0.525L0.055,-0.525L0.055,-0L0.181,-0L0.181,-0.525ZM0.181,-0.75L0.055,-0.75L0.055,-0.643L0.181,-0.643L0.181,-0.75Z" style="fill:rgb(202,0,41);fill-rule:nonzero;"/>
                </g>
                <g transform="matrix(12,0,0,12,174.557,147.867)">
                    <path d="M0.291,-0.531C0.072,-0.531 0.044,-0.466 0.044,-0.262C0.044,-0.059 0.072,0.006 0.291,0.006C0.51,0.006 0.538,-0.059 0.538,-0.262C0.538,-0.466 0.51,-0.531 0.291,-0.531ZM0.291,-0.435C0.403,-0.435 0.412,-0.403 0.412,-0.261C0.412,-0.121 0.403,-0.09 0.291,-0.09C0.179,-0.09 0.17,-0.121 0.17,-0.261C0.17,-0.403 0.179,-0.435 0.291,-0.435Z" style="fill:rgb(202,0,41);fill-rule:nonzero;"/>
                </g>
                <g transform="matrix(12,0,0,12,181.541,147.867)">
                    <path d="M0.062,-0.525L0.062,-0L0.188,-0L0.188,-0.289C0.188,-0.383 0.203,-0.435 0.313,-0.435C0.394,-0.435 0.411,-0.409 0.411,-0.333L0.411,-0L0.537,-0L0.537,-0.346C0.537,-0.474 0.495,-0.531 0.357,-0.531C0.283,-0.531 0.22,-0.523 0.192,-0.446L0.188,-0.446L0.188,-0.525L0.062,-0.525Z" style="fill:rgb(202,0,41);fill-rule:nonzero;"/>
                </g>
                <g transform="matrix(12,0,0,12,188.717,147.867)">
                    <path d="M0.507,-0.382C0.507,-0.529 0.384,-0.531 0.281,-0.531C0.146,-0.531 0.042,-0.528 0.042,-0.384C0.042,-0.25 0.077,-0.224 0.27,-0.221C0.397,-0.219 0.4,-0.196 0.4,-0.15C0.4,-0.078 0.356,-0.08 0.281,-0.08C0.188,-0.08 0.17,-0.089 0.168,-0.165L0.042,-0.165C0.042,0.006 0.138,0.006 0.281,0.006C0.414,0.006 0.526,-0.008 0.526,-0.15C0.526,-0.32 0.416,-0.311 0.292,-0.317C0.182,-0.322 0.168,-0.324 0.168,-0.376C0.168,-0.445 0.214,-0.445 0.281,-0.445C0.348,-0.445 0.381,-0.445 0.381,-0.382L0.507,-0.382Z" style="fill:rgb(202,0,41);fill-rule:nonzero;"/>
                </g>
            </g>
            <g transform="matrix(1,0,0,2.41225,0,-18.8787)">
                <ellipse cx="284.035" cy="16.851" rx="16.496" ry="4.495" style="fill:rgb(202,0,41);"/>
            </g>
            <g transform="matrix(1.92179,0,0,1,-232.668,0)">
                <path d="M264.935,9.882C260.178,9.882 256.316,15.176 256.316,21.696C256.316,28.216 260.178,33.51 264.935,33.51C261.723,32.231 259.116,27.378 259.116,21.696C259.116,16.014 261.723,11.161 264.935,9.882Z"/>
            </g>
            <g transform="matrix(-2.1118,0,0,1,849.583,0.547578)">
                <path d="M264.935,9.882C260.178,9.882 256.316,15.176 256.316,21.696C256.316,28.216 260.178,33.51 264.935,33.51C261.542,32.381 258.787,27.476 258.787,21.696C258.787,15.916 261.542,11.011 264.935,9.882Z"/>
            </g>
            <g transform="matrix(3.49304,0,0,2.52013,-144.826,-248.947)">
                <path d="M65.369,141.575C62.512,141.575 59.908,141.199 57.558,140.446C55.207,139.693 53.187,138.626 51.497,137.243C49.808,135.861 48.502,134.209 47.58,132.289C46.659,130.369 46.198,128.226 46.198,125.86C46.198,123.618 46.666,121.536 47.603,119.616C48.54,117.696 49.854,116.037 51.544,114.639C53.233,113.241 55.253,112.15 57.604,111.367C59.954,110.584 62.542,110.192 65.369,110.192C68.226,110.192 70.837,110.599 73.203,111.413C75.569,112.227 77.596,113.333 79.286,114.731C80.976,116.129 82.282,117.78 83.203,119.685C84.125,121.59 84.586,123.648 84.586,125.86L84.586,128.395L52.742,128.395C52.988,129.44 53.487,130.4 54.239,131.275C54.992,132.151 55.929,132.904 57.051,133.533C58.172,134.163 59.447,134.655 60.876,135.008C62.304,135.361 63.802,135.538 65.369,135.538C66.721,135.538 67.996,135.469 69.194,135.331C70.392,135.192 71.529,134.947 72.604,134.593C73.679,134.24 74.701,133.772 75.669,133.188C76.636,132.604 77.581,131.851 78.503,130.93L83.895,133.741C82.604,135.185 81.26,136.406 79.862,137.405C78.464,138.403 77.005,139.209 75.484,139.824C73.963,140.438 72.366,140.884 70.691,141.16C69.017,141.437 67.243,141.575 65.369,141.575ZM77.904,123.28C77.596,122.212 77.074,121.243 76.337,120.373C75.599,119.502 74.685,118.762 73.595,118.152C72.504,117.541 71.26,117.068 69.862,116.733C68.464,116.397 66.966,116.229 65.369,116.229C63.802,116.229 62.312,116.397 60.899,116.733C59.485,117.068 58.226,117.549 57.12,118.175C56.014,118.801 55.084,119.548 54.332,120.418C53.579,121.288 53.049,122.242 52.742,123.28L77.904,123.28Z" style="fill-rule:nonzero;"/>
                <g transform="matrix(0.935263,0,0,1,5.55934,0)">
                    <path d="M104.19,141.575C102.929,141.575 101.767,141.498 100.705,141.345C99.644,141.191 98.628,140.968 97.659,140.676C96.69,140.385 95.736,140.031 94.798,139.617C93.859,139.202 92.913,138.749 91.959,138.257L91.959,151.97L85.876,151.97L85.876,111.528L91.959,111.528L92.005,113.925C93.572,112.727 95.354,111.805 97.351,111.16C99.348,110.515 101.637,110.192 104.218,110.192C106.921,110.192 109.379,110.568 111.591,111.321C113.803,112.074 115.692,113.134 117.259,114.501C118.826,115.868 120.04,117.512 120.9,119.432C121.76,121.352 122.19,123.495 122.19,125.86C122.19,128.226 121.76,130.369 120.898,132.289C120.037,134.209 118.821,135.861 117.252,137.243C115.683,138.626 113.79,139.693 111.575,140.446C109.359,141.199 106.898,141.575 104.19,141.575ZM102.994,116.183C100.501,116.183 98.315,116.513 96.438,117.174C94.56,117.834 93.067,118.84 91.959,120.192L91.959,131.529C93.067,132.819 94.568,133.81 96.461,134.501C98.354,135.192 100.532,135.538 102.994,135.538C104.964,135.538 106.757,135.308 108.373,134.847C109.989,134.386 111.375,133.733 112.529,132.888C113.683,132.043 114.583,131.022 115.23,129.824C115.876,128.626 116.199,127.304 116.199,125.86C116.199,124.417 115.876,123.103 115.23,121.92C114.583,120.737 113.683,119.716 112.529,118.856C111.375,117.995 109.989,117.335 108.373,116.874C106.757,116.413 104.964,116.183 102.994,116.183Z" style="fill-rule:nonzero;"/>
                </g>
                <g transform="matrix(1,0,0,1,-4.05597,0)">
                    <rect x="124.448" y="113.304" width="5.002" height="26.889" style="fill-rule:nonzero;"/>
                </g>
                <g transform="matrix(0.887405,0,0,1.00283,9.19592,-0.435299)">
                    <path d="M150.855,141.575C147.997,141.575 145.386,141.199 143.02,140.446C140.655,139.693 138.635,138.626 136.96,137.243C135.286,135.861 133.988,134.209 133.066,132.289C132.144,130.369 131.684,128.226 131.684,125.86C131.684,123.495 132.144,121.352 133.066,119.432C133.988,117.512 135.286,115.868 136.96,114.501C138.635,113.134 140.655,112.074 143.02,111.321C145.386,110.568 147.997,110.192 150.855,110.192C152.698,110.192 154.457,110.339 156.131,110.633C157.806,110.927 159.38,111.399 160.855,112.049C162.329,112.7 163.704,113.559 164.979,114.627C166.254,115.695 167.445,116.997 168.551,118.533L163.528,121.897C162.084,119.87 160.309,118.418 158.205,117.542C156.1,116.667 153.65,116.229 150.855,116.229C148.888,116.229 147.106,116.459 145.509,116.918C143.911,117.378 142.536,118.037 141.384,118.895C140.232,119.754 139.341,120.773 138.711,121.953C138.082,123.133 137.767,124.443 137.767,125.884C137.767,127.324 138.082,128.642 138.711,129.837C139.341,131.033 140.232,132.052 141.384,132.895C142.536,133.738 143.911,134.389 145.509,134.849C147.106,135.308 148.888,135.538 150.855,135.538C153.589,135.538 156.077,135.108 158.32,134.248C160.563,133.388 162.329,132.036 163.62,130.192L168.689,133.603C167.706,134.954 166.569,136.13 165.279,137.128C163.989,138.127 162.568,138.956 161.016,139.617C159.465,140.277 157.829,140.769 156.108,141.091C154.388,141.414 152.636,141.575 150.855,141.575Z" style="fill-rule:nonzero;"/>
                </g>
            </g>
        </g>
    </g>
</svg>
